<?xml version="1.0" encoding="UTF-8"?>
<svg width="300" height="400" viewBox="0 0 300 400" xmlns="http://www.w3.org/2000/svg">
  <!-- Character body -->
  <ellipse cx="200" cy="280" rx="70" ry="90" fill="#5C6BC0"/>
  
  <!-- Character head -->
  <circle cx="200" cy="150" r="80" fill="#FFCA28"/>
  
  <!-- Eyes -->
  <circle cx="170" cy="130" r="12" fill="#FFFFFF"/>
  <circle cx="230" cy="130" r="12" fill="#FFFFFF"/>
  <circle cx="170" cy="130" r="6" fill="#263238"/>
  <circle cx="230" cy="130" r="6" fill="#263238"/>
  
  <!-- Smile -->
  <path d="M160,170 Q200,210 240,170" stroke="#263238" stroke-width="5" fill="none"/>
  
  <!-- Arms -->
  <path d="M150,280 Q130,260 110,270" stroke="#5C6BC0" stroke-width="20" fill="none" stroke-linecap="round"/>
  <path d="M150,280 Q130,300 100,315" stroke="#5C6BC0" stroke-width="20" fill="none" stroke-linecap="round" transform="rotate(180 200 280)"/>
  
  <!-- Map UI Element -->
  <rect x="30" y="80" rx="10" ry="10" width="120" height="200" fill="#FFFFFF" stroke="#263238" stroke-width="2"/>
  <rect x="40" y="100" rx="5" ry="5" width="100" height="40" fill="#EEEEEE" stroke="#263238" stroke-width="1"/>
  <rect x="40" y="150" rx="5" ry="5" width="100" height="40" fill="#EEEEEE" stroke="#263238" stroke-width="1"/>
  <circle cx="90" cy="220" r="20" fill="#4CAF50" stroke="#263238" stroke-width="1"/>
  <text x="90" y="225" font-family="Arial" font-size="20" text-anchor="middle" fill="#FFFFFF">GO</text>
  
  <!-- Map pin -->
  <path d="M90,40 L100,60 L80,60 Z" fill="#F44336" stroke="#263238" stroke-width="1"/>
  <circle cx="90" cy="35" r="10" fill="#F44336" stroke="#263238" stroke-width="1"/>
</svg>