<?xml version="1.0" encoding="UTF-8"?>
<svg width="300" height="400" viewBox="0 0 300 400" xmlns="http://www.w3.org/2000/svg">
  <!-- Character body -->
  <ellipse cx="150" cy="280" rx="70" ry="90" fill="#5C6BC0"/>
  
  <!-- Character head -->
  <circle cx="150" cy="150" r="80" fill="#FFCA28"/>
  
  <!-- Eyes -->
  <circle cx="120" cy="130" r="12" fill="#FFFFFF"/>
  <circle cx="180" cy="130" r="12" fill="#FFFFFF"/>
  <circle cx="120" cy="130" r="6" fill="#263238"/>
  <circle cx="180" cy="130" r="6" fill="#263238"/>
  
  <!-- Big smile -->
  <path d="M110,170 Q150,220 190,170" stroke="#263238" stroke-width="5" fill="none"/>
  
  <!-- Arms raised in excitement -->
  <path d="M100,280 Q90,220 80,200" stroke="#5C6BC0" stroke-width="20" fill="none" stroke-linecap="round"/>
  <path d="M200,280 Q210,220 220,200" stroke="#5C6BC0" stroke-width="20" fill="none" stroke-linecap="round"/>
  
  <!-- Thumbs up icon -->
  <circle cx="80" cy="200" r="20" fill="#4CAF50" stroke="#263238" stroke-width="2"/>
  <path d="M75,205 L75,190 L85,190 L87,180 L92,180 L90,205 Z" fill="#FFFFFF" stroke="#263238" stroke-width="1"/>
  
  <!-- Stars around character -->
  <path d="M50,120 L55,130 L65,130 L58,138 L60,150 L50,143 L40,150 L42,138 L35,130 L45,130 Z" fill="#FFC107"/>
  <path d="M250,120 L255,130 L265,130 L258,138 L260,150 L250,143 L240,150 L242,138 L235,130 L245,130 Z" fill="#FFC107"/>
  <path d="M150,50 L155,60 L165,60 L158,68 L160,80 L150,73 L140,80 L142,68 L135,60 L145,60 Z" fill="#FFC107"/>
  
  <!-- Text bubble "Let's Go!" -->
  <ellipse cx="220" cy="80" rx="60" ry="30" fill="#FFFFFF" stroke="#263238" stroke-width="2"/>
  <path d="M180,100 L170,120 L175,95" fill="#FFFFFF" stroke="#263238" stroke-width="2"/>
  <text x="220" y="85" font-family="Arial" font-size="14" font-weight="bold" text-anchor="middle" fill="#263238">Let's Go!</text>
</svg>